<?xml version="1.0" encoding="UTF-8" standalone="no"?>
<!DOCTYPE svg PUBLIC "-//W3C//DTD SVG 1.1//EN" "http://www.w3.org/Graphics/SVG/1.1/DTD/svg11.dtd">
<svg version="1.1" xmlns="http://www.w3.org/2000/svg" xmlns:xlink="http://www.w3.org/1999/xlink" preserveAspectRatio="xMidYMid meet" viewBox="293.9874781287318 91.82090127156486 189.6905429424042 85.16781402170112" width="149.69" height="85.17"><defs><path d="M353.94 156.27C353.34 150.55 353.94 155.03 353.05 130.71C352.46 114.49 339.71 107.1 314.81 108.52L313.99 156.27" id="c2EF9PIux5"></path><path d="M363.49 156.27C364.08 150.55 363.49 155.03 364.37 130.71C364.97 114.49 377.71 107.1 402.61 108.52L403.44 156.27" id="e5DvzWVDdQ"></path><path d="M423.73 156.27C424.32 150.55 423.73 155.03 424.61 130.71C425.21 114.49 437.95 107.1 462.86 108.52L463.68 156.27" id="h75OTcatM"></path><path d="M393.15 175.35C404.52 178.85 411.38 176.75 413.73 169.03L413.73 105.05" id="a2JiMZEIf7"></path><path d="M409.2 91.82L418.14 91.82L418.14 100.76L409.2 100.76L409.2 91.82Z" id="b8dpUbup6"></path></defs><g><g><g><g><use xlink:href="#c2EF9PIux5" opacity="1" fill-opacity="0" stroke="#000000" stroke-width="9" stroke-opacity="1"></use></g></g><g><g><use xlink:href="#e5DvzWVDdQ" opacity="1" fill-opacity="0" stroke="#000000" stroke-width="9" stroke-opacity="1"></use></g></g><g><g><use xlink:href="#h75OTcatM" opacity="1" fill-opacity="0" stroke="#000000" stroke-width="9" stroke-opacity="1"></use></g></g><g><g><use xlink:href="#a2JiMZEIf7" opacity="1" fill-opacity="0" stroke="#000000" stroke-width="9" stroke-opacity="1"></use></g></g><g><use xlink:href="#b8dpUbup6" opacity="1" fill="#000000" fill-opacity="1"></use></g></g></g></svg>
